<svg width="100" height="100" viewBox="0 0 100 100" fill="none" xmlns="http://www.w3.org/2000/svg">
<rect width="100" height="100" rx="4" fill="#1A1A1A"/>
<path d="M68.686 33.9586C61.9426 29.2298 58.4402 23.8002 56.7764 20.5612C56.1632 19.3348 53.0106 20.342 51.0845 21.1302C50.0772 21.5243 48.9392 21.5243 47.9319 21.1302C45.9615 20.342 42.8532 19.3348 42.24 20.5612C40.6195 23.8445 37.117 29.274 30.3304 33.9586C15.5748 44.2487 3.22688 80.1082 49.5082 80.1082C95.7885 80.1082 83.4416 44.2487 68.686 33.9586Z" fill="#FCFBE2"/>
<path d="M17.4136 62.0252C17.4136 62.0252 17.9393 81.3347 49.5073 81.3347C81.0763 81.3347 81.602 62.0252 81.602 62.0252C81.602 62.0252 73.2833 75.9926 49.5073 75.9926C25.7333 75.9926 17.4136 62.0252 17.4136 62.0252Z" fill="#EDE6AB"/>
<path d="M30.3737 45.1676C30.1988 45.1676 30.0239 45.1234 29.848 45.0801C29.0598 44.7735 28.71 43.9422 28.9724 43.153C31.8183 35.6656 41.0569 30.9368 41.451 30.7619C42.1959 30.412 43.0715 30.6744 43.4213 31.4183C43.7722 32.1622 43.5088 33.0378 42.7649 33.4319C42.6774 33.4761 34.1828 37.7667 31.7751 44.2035C31.5559 44.8178 30.987 45.1676 30.3737 45.1676ZM41.1886 46.7881C41.0137 46.7881 40.882 46.7439 40.7071 46.7007C39.9189 46.4383 39.5248 45.6059 39.744 44.8178C41.7144 38.9067 44.2979 35.8858 44.3854 35.7541C44.9112 35.1409 45.8742 35.0534 46.4874 35.6224C47.1007 36.1482 47.1881 37.1112 46.6191 37.7245C46.5749 37.7687 44.2979 40.483 42.5467 45.7808C42.3708 46.394 41.8018 46.7881 41.1886 46.7881ZM68.5102 45.9557C67.8538 45.9557 67.2838 45.5184 67.0656 44.861C64.8329 36.9363 57.5647 33.4329 57.4762 33.3887C56.7323 33.0388 56.4257 32.1632 56.7755 31.4183C57.1254 30.6734 58.002 30.3678 58.7459 30.7176C59.0957 30.8925 67.2838 34.79 69.9116 44.0718C70.1308 44.86 69.6925 45.6924 68.9043 45.9105C68.7736 45.9557 68.6419 45.9557 68.5102 45.9557ZM58.572 46.7881C57.9155 46.7881 57.3455 46.3498 57.1264 45.7376C55.5501 40.3523 53.0982 37.5063 53.055 37.4621C52.5292 36.8489 52.5734 35.93 53.1857 35.36C53.7989 34.8343 54.7177 34.8785 55.2877 35.4907C55.4194 35.6224 58.2211 38.8624 59.9723 44.9052C60.1915 45.6934 59.7532 46.5247 58.9661 46.7439C58.8344 46.7439 58.7027 46.7881 58.572 46.7881Z" fill="#4C2F1B"/>
<path d="M55.4626 19.948C56.1191 19.948 56.6006 20.1229 56.8198 20.517C58.4403 23.8003 61.9427 29.2308 68.7294 33.9154C83.485 44.2055 95.8761 80.0651 49.5516 80.0651C3.22701 80.0651 15.5749 44.2488 30.3305 33.9597C37.073 29.2308 40.5754 23.8013 42.2401 20.5622C42.4593 20.1682 42.9408 19.9933 43.5973 19.9933C44.8669 19.9933 46.6624 20.6065 47.9763 21.1312C48.502 21.3504 49.0268 21.4378 49.5526 21.4378C50.0783 21.4378 50.6031 21.3504 51.1289 21.1312C52.3543 20.5612 54.193 19.948 55.4626 19.948ZM55.4626 15C53.8421 15 51.916 15.4383 49.5073 16.4014C47.0997 15.4383 45.1735 15 43.553 15C39.8315 15 38.2984 17.3202 37.7726 18.3275C36.503 20.8236 33.5253 25.6832 27.4835 29.8873C17.2387 37.068 8.96317 53.4431 13.0788 66.4907C15.7499 74.9411 24.2435 85.0553 49.5073 85.0553C74.7711 85.0553 83.2658 74.9411 85.9368 66.4907C90.0093 53.4863 81.777 37.067 71.5321 29.8863C65.4894 25.6822 62.5127 20.8226 61.242 18.3265C60.7173 17.3202 59.141 15 55.4626 15Z" fill="#4C2F1B"/>
</svg>
