<svg width="100" height="100" viewBox="0 0 100 100" fill="none" xmlns="http://www.w3.org/2000/svg">
<rect width="100" height="100" rx="4" fill="#1A1A1A"/>
<path d="M15.1353 75.9964C15.1353 82.1729 28.2281 87.179 44.3791 87.179C60.5301 87.179 73.6229 82.1729 73.6229 75.9964C73.6229 69.82 60.5301 64.8138 44.3791 64.8138C28.2281 64.813 15.1353 69.82 15.1353 75.9964Z" fill="#228B58"/>
<path d="M45.1335 89.0687C30.0413 89.0687 14 84.487 14 75.9965C14 67.506 30.0413 62.9243 45.1335 62.9243C60.2256 62.9243 76.2669 67.5051 76.2669 75.9965C76.2669 84.4878 60.2265 89.0687 45.1335 89.0687ZM45.1335 66.7027C28.1859 66.7027 17.7793 72.1152 17.7793 75.9956C17.7793 79.8761 28.1859 85.2886 45.1335 85.2886C62.081 85.2886 72.4876 79.8761 72.4876 75.9956C72.4876 72.1152 62.081 66.7027 45.1335 66.7027Z" fill="#4C2F1B"/>
<path d="M67.4986 65.0351C66.8333 65.0351 66.2117 64.8576 65.7239 64.4581C64.8365 63.7928 64.3924 62.6833 64.6145 61.4847L67.0999 45.8644C67.322 44.5775 68.1648 43.4235 69.3625 42.8465C70.0724 42.4915 73.8448 40.8051 77.3952 40.8051C79.5249 40.8051 81.2559 41.3821 82.4982 42.5799C84.7616 44.7104 85.2058 48.3936 83.7851 53.5413C81.8329 60.5528 78.9487 61.7951 74.4218 62.9937C72.9575 63.3932 71.1827 63.8365 68.8747 64.7684L68.4752 64.9013C68.1648 64.9905 67.8098 65.0351 67.4986 65.0351ZM72.2913 56.6483C72.8237 56.5154 73.3561 56.3826 73.8003 56.2934C76.729 55.5835 76.729 55.5835 77.6164 52.5218C78.5037 49.3719 78.1488 48.1733 77.9713 47.9958C77.9713 47.9958 77.7493 47.8184 76.9948 47.8184C76.152 47.8184 74.9088 48.0841 73.6219 48.5282L72.2913 56.6483Z" fill="#228B58"/>
<path d="M77.3953 42.2704C78.9488 42.2704 80.4569 42.6253 81.5218 43.6464C83.3857 45.3766 83.696 48.572 82.41 53.1872C80.5898 59.6217 78.2381 60.5536 74.0224 61.6185C72.558 62.018 70.6941 62.5059 68.2978 63.4378C68.2086 63.4824 68.1203 63.4824 68.0757 63.527C67.8983 63.5716 67.6762 63.6161 67.4987 63.6161C67.1438 63.6161 66.8334 63.527 66.5668 63.3058C66.1235 62.9508 65.9015 62.3738 65.9898 61.7085L68.4753 46.0882C68.6082 45.2454 69.1852 44.4909 69.9396 44.136C70.5167 43.8676 74.1107 42.2704 77.3953 42.2704ZM70.5612 58.6006C71.981 58.1565 73.135 57.8907 74.1553 57.6686C77.6611 56.8258 77.8831 56.7812 78.9925 52.9205C79.6141 50.7908 80.0574 47.995 78.9034 46.9739C78.4593 46.5743 77.7939 46.4414 76.9949 46.4414C75.5751 46.4414 73.7549 46.9738 72.3797 47.5063L70.5612 58.6006ZM77.3953 39.4745C73.5346 39.4745 69.4964 41.2501 68.7419 41.6488C67.1446 42.4032 65.946 43.9568 65.6803 45.7315L63.1956 61.3518C62.9298 63.0383 63.5506 64.7239 64.8821 65.7004C65.6365 66.2328 66.5239 66.5432 67.4996 66.5432C67.9437 66.5432 68.3878 66.4995 68.8311 66.3657C69.0085 66.3211 69.186 66.2765 69.3635 66.1882C71.5823 65.3 73.3579 64.8567 74.7332 64.5018C79.615 63.2149 82.9424 61.8397 85.1175 54.0728C86.7148 48.3928 86.1387 44.2217 83.4311 41.6916C81.9213 40.1844 79.8799 39.4745 77.3953 39.4745ZM74.8661 49.5922C75.5759 49.3702 76.2413 49.2373 76.7745 49.2373C76.7745 49.7251 76.6854 50.6571 76.2421 52.166C76.0646 52.7431 75.7097 53.9854 75.4876 54.3849C75.2219 54.5178 74.644 54.6515 74.0233 54.7844L74.8661 49.5922Z" fill="#4C2F1B"/>
<path d="M72.9128 45.1991L45.4883 45.6869H17.6643C17.6643 45.6869 15.6229 77.8149 45.4883 77.8149C75.3537 77.8149 72.9128 45.1991 72.9128 45.1991Z" fill="#38AE74"/>
<path d="M45.3143 79.7054C36.3454 79.7054 29.2035 76.9327 24.0851 71.4644C15.7609 62.5959 15.4831 49.5185 15.5963 45.7212L15.6006 45.554C15.6709 44.5835 16.5017 43.7981 17.4902 43.7981H45.3143C45.3143 43.7981 72.7045 43.3094 72.7053 43.3094C73.7642 43.3094 74.5589 44.0596 74.6301 45.055C74.7398 46.7278 75.4437 61.6673 66.3643 71.467C61.2878 76.9335 54.2051 79.7054 45.3143 79.7054ZM19.3799 48.0532C19.5042 52.0717 20.4824 62.1474 26.8724 68.9026C31.2603 73.5624 37.4797 75.9253 45.358 75.9253C53.1351 75.9253 59.2661 73.5761 63.5795 68.9446C69.9703 62.0514 70.8534 51.7245 70.9366 47.6048L70.946 47.1247L45.394 47.5774H19.3653L19.3799 48.0532Z" fill="#4C2F1B"/>
<path d="M17.3093 46.1757C17.3093 53.7239 29.7668 59.8438 45.1334 59.8438C60.4999 59.8438 72.9574 53.7239 72.9574 46.1757C72.9574 38.6266 60.5007 32.5076 45.1334 32.5076C29.7668 32.5076 17.3093 38.6266 17.3093 46.1757Z" fill="#D6E6EA"/>
<path d="M17.3093 46.1757C17.3093 53.7239 29.7668 59.8438 45.1334 59.8438C60.4999 59.8438 72.9574 53.7239 72.9574 46.1757C72.9574 38.6266 60.5007 32.5076 45.1334 32.5076C29.7668 32.5076 17.3093 38.6266 17.3093 46.1757Z" fill="#D6FCDA"/>
<path d="M44.6902 39.297C31.9095 39.297 22.8575 43.7347 19.3071 48.7494C19.7067 56.2488 30.0465 59.8437 45.1781 59.8437C59.112 59.8437 69.0085 57.714 71.0936 51.0575C68.9639 45.1099 58.9345 39.297 44.6902 39.297Z" fill="#724E3B"/>
<path d="M45.1336 61.7325C28.4716 61.7325 15.4199 54.8993 15.4199 46.1756C15.4199 37.452 28.4716 30.6179 45.1336 30.6179C61.7956 30.6179 74.8472 37.452 74.8472 46.1756C74.8472 54.8993 61.7956 61.7325 45.1336 61.7325ZM45.1336 34.3972C29.6204 34.3972 19.1992 40.487 19.1992 46.1756C19.1992 51.7468 29.8502 57.9533 45.1336 57.9533C60.4169 57.9533 71.0671 51.7459 71.0671 46.1756C71.068 40.487 60.6467 34.3972 45.1336 34.3972Z" fill="#4C2F1B"/>
<path d="M27.4717 50.3913C27.4717 50.3913 38.566 49.4594 40.8285 48.9715C43.0474 48.4828 46.9527 48.572 49.4819 48.4828C52.0111 48.3945 59.9992 49.4148 59.9992 49.4148C59.9992 49.4148 51.6125 49.5477 51.2575 49.4148C50.9026 49.2819 42.3821 50.5242 42.3821 50.5242L27.4717 50.3913ZM28.7149 45.9536C28.7149 45.9536 34.8381 42.6699 37.0579 42.2258C39.2767 41.7379 43.1812 41.8262 45.7112 41.7379C48.2405 41.6488 53.3443 42.2704 53.3443 42.2704C53.3443 42.2704 47.8418 42.8028 47.4868 42.6699C47.1319 42.537 39.8091 44.5784 39.8091 44.5784L28.7149 45.9536ZM37.989 55.7601C37.989 55.7601 41.0506 55.5827 43.2695 55.0948C45.4883 54.607 49.3936 54.6953 51.9228 54.607C54.4521 54.5624 56.3606 54.2074 56.3606 54.2074C56.3606 54.2074 53.9196 55.2286 53.1652 55.4943C52.8102 55.6272 47.3522 56.5155 47.3522 56.5155L37.989 55.7601Z" fill="#9B6F5C"/>
<path d="M36.4356 28.8243C36.1252 28.8243 35.7703 28.6914 35.5036 28.4694C34.9266 27.937 34.8375 27.0487 35.3707 26.4726C37.1009 24.5204 36.5247 22.9668 36.0806 22.2569C35.9477 22.0349 35.7257 21.8128 35.5036 21.547C34.4388 20.2601 32.3974 17.9084 35.1933 14.136C35.6374 13.5144 36.5247 13.3815 37.1455 13.8256C37.7671 14.2689 37.9 15.1562 37.4558 15.7778C35.9915 17.7746 36.6131 18.4854 37.6333 19.6831C37.8991 19.9935 38.1657 20.3047 38.3878 20.6597C38.9648 21.547 40.6067 24.6978 37.4558 28.2919C37.2346 28.6469 36.8351 28.8243 36.4356 28.8243Z" fill="#4C2F1B"/>
<path d="M46.7317 25.4515C46.4214 25.4515 46.0656 25.3186 45.7998 25.0965C45.2228 24.5641 45.1345 23.6767 45.6669 23.0997C47.3979 21.1475 46.8209 19.594 46.3768 18.8841C46.2439 18.662 46.0218 18.4408 45.7998 18.1742C44.7349 16.8873 42.6935 14.5347 45.4894 10.7631C45.9335 10.1415 46.8209 10.0086 47.4416 10.4527C48.0632 10.8969 48.1961 11.7842 47.752 12.4058C46.2876 14.4026 46.9083 15.1125 47.9295 16.3111C48.1952 16.6215 48.4619 16.9327 48.6839 17.2876C49.2609 18.175 50.9028 21.3258 47.752 24.9199C47.5299 25.3186 47.1304 25.4515 46.7317 25.4515Z" fill="#4C2F1B"/>
<path d="M57.0268 28.8243C56.7164 28.8243 56.3615 28.6914 56.0948 28.4694C55.5178 27.937 55.4286 27.0487 55.9611 26.4726C57.6921 24.5204 57.1151 22.9668 56.671 22.2569C56.5381 22.0349 56.316 21.8128 56.094 21.547C55.0291 20.2601 52.9877 17.9084 55.7836 14.136C56.2277 13.5144 57.1151 13.3815 57.7367 13.8256C58.3583 14.2689 58.4911 15.1562 58.047 15.7778C56.5827 17.7746 57.2034 18.4854 58.2245 19.6831C58.4903 19.9935 58.7569 20.3047 58.979 20.6597C59.556 21.547 61.1978 24.6978 58.047 28.2919C57.825 28.6469 57.4263 28.8243 57.0268 28.8243Z" fill="#4C2F1B"/>
<path d="M45.5776 64.3698C43.1367 64.4589 41.229 66.5003 40.6074 68.275C39.6309 71.0709 41.4056 72.6682 42.9592 72.6682C43.9357 72.6682 45.0889 71.0709 44.6456 69.5619C43.8911 67.1648 47.5744 64.2806 45.5776 64.3698ZM45.5776 72.934C48.0185 72.8448 49.7487 70.8043 50.3702 69.0287C51.3468 66.2328 49.572 64.6355 47.8847 64.6355C47.2632 64.6355 45.9325 65.4337 46.3312 67.7418C46.7753 70.2273 43.5808 73.0231 45.5776 72.934Z" fill="white"/>
</svg>
