<svg width="100" height="100" viewBox="0 0 100 100" fill="none" xmlns="http://www.w3.org/2000/svg">
<rect width="100" height="100" rx="4" fill="#1A1A1A"/>
<path d="M35.1704 34.9384C33.6667 34.9384 32.4604 33.7157 32.4604 32.206L32.4814 18.4418C32.4814 17.7184 32.7673 17.0277 33.2751 16.5178C33.7829 16.0079 34.4709 15.7209 35.1913 15.7209L65.1187 15.7524C65.8381 15.7524 66.5271 16.0394 67.0349 16.5493C67.5428 17.0592 67.8287 17.751 67.8287 18.4733L67.8077 32.248C67.8077 33.7567 66.5899 34.9689 65.0978 34.9689C65.0863 34.9815 35.1704 34.9384 35.1704 34.9384Z" fill="white"/>
<path d="M35.1912 18.4523L65.1072 18.4849L65.0862 32.2491L35.1703 32.2175L35.1912 18.4523ZM35.1912 13C33.7515 13 32.3756 13.574 31.3588 14.5938C30.3421 15.6147 29.7714 16.9962 29.7609 18.4418L29.74 32.1955C29.74 35.2034 32.164 37.6477 35.1598 37.6477L65.0768 37.6803H65.0873C66.527 37.6803 67.9029 37.1063 68.9197 36.0865C69.9354 35.0656 70.5071 33.6842 70.5186 32.2386L70.5396 18.4849C70.5396 15.477 68.1155 13.0315 65.1197 13.0315L35.1912 13Z" fill="#4C2F1B"/>
<path d="M31.4439 29.3894L22.71 39.7525V84.2665H61.3493V39.7525L68.7702 29.3894H31.4439Z" fill="white"/>
<path d="M61.3493 86.9884H22.7099C21.2073 86.9884 20 85.7668 20 84.2675V39.7536C20 39.1049 20.222 38.4888 20.6461 37.9894L29.38 27.6368C29.8994 27.0207 30.6501 26.6696 31.4554 26.6696H68.7827C69.7984 26.6696 70.7304 27.2436 71.1963 28.1467C71.6623 29.0603 71.5775 30.1558 70.9848 30.9843L64.0718 40.6251V84.2675C64.0718 84.9909 63.7859 85.6816 63.2781 86.1915C62.7577 86.713 62.0697 86.9884 61.3493 86.9884ZM25.4303 81.5466H58.6394V39.7536C58.6394 39.1795 58.8195 38.6265 59.1472 38.1597L63.477 32.1229H32.7035L25.4303 40.7534V81.5466Z" fill="#4C2F1B"/>
<path d="M69.4058 29.1992L61.3494 40.6567V84.2676H77.9586V40.2425L69.4058 29.1992Z" fill="#EFEFEF"/>
<path d="M77.9594 87H61.3491C59.8465 87 58.6392 85.7773 58.6392 84.2791V40.6567C58.6392 40.0932 58.8088 39.5412 59.1365 39.0839L67.193 27.6253C67.6904 26.924 68.4841 26.4877 69.3521 26.4772C70.2202 26.4446 71.0244 26.8483 71.5542 27.5296L80.107 38.5729C80.4777 39.0513 80.6787 39.6358 80.6787 40.2414V84.2665C80.6693 85.7773 79.4526 87 77.9594 87ZM64.06 81.5467H75.239V41.1771L69.5113 33.7788L64.059 41.5272V81.5467H64.06Z" fill="#4C2F1B"/>
<path d="M61.3493 40.8701H22.71V62.9998H61.3493V40.8701Z" fill="#526FFF"/>
<path d="M61.3493 65.7197H22.7099C21.2073 65.7197 20 64.498 20 62.9988V40.8701C20 39.3604 21.2178 38.1492 22.7099 38.1492H61.3493C62.8529 38.1492 64.0592 39.3719 64.0592 40.8701V62.9999C64.0603 64.5086 62.8529 65.7197 61.3493 65.7197ZM25.4303 60.2779H58.6394V43.5899H25.4303V60.2779Z" fill="#4C2F1B"/>
<path d="M36.0164 47.5977H39.4362L42.0728 53.3695L44.6561 47.5766H48.0435V56.2713H46.0424V49.9043H45.8833L42.8665 56.2713H41.1409L38.1765 49.9043H38.0174V56.2818H36.0268V47.5977H36.0164Z" fill="white"/>
</svg>
