<svg width="100" height="100" viewBox="0 0 100 100" fill="none" xmlns="http://www.w3.org/2000/svg">
<rect width="100" height="100.001" rx="4" fill="#1A1A1A"/>
<path d="M81.1365 77.0393C81.1365 77.0393 75.2602 82.5576 68.8998 81.2688C62.5401 79.9786 54.8581 76.4332 49.8703 75.7379C44.8825 75.0411 34.2604 72.1085 30.1358 66.0268C26.0111 59.9452 21.362 43.8707 29.8788 33.9896C38.3955 24.1085 47.7596 18.2763 55.7969 19.3335C63.8341 20.3914 73.7227 24.5558 77.5266 32.0123C81.3298 39.4689 82.1922 47.5361 83.932 54.2404C85.6718 60.9454 85.8089 69.9619 84.198 72.5506C82.5878 75.1385 81.1365 77.0393 81.1365 77.0393Z" fill="#FF4A41"/>
<path d="M77.5276 32.0123C81.3323 39.4689 82.1932 47.5353 83.9329 54.2404C85.6727 60.9454 85.8098 69.9619 84.1989 72.5498C82.588 75.1385 81.1375 77.0393 81.1375 77.0393C81.1375 77.0393 75.2611 82.5576 68.9007 81.2681C65.9202 80.5915 62.9831 79.7337 60.1067 78.6997C60.6919 78.3415 61.0665 78.134 61.0665 78.134C61.0665 78.134 71.1822 75.0935 73.355 72.2434C76.3947 68.2634 77.7321 65.7122 75.4364 58.9914C73.1415 52.2714 75.8792 40.2848 67.1137 31.3013C60.4364 24.4569 47.1177 23.7024 41.1484 23.7309C46.1946 20.3757 51.2116 18.7289 55.7978 19.3335C63.8358 20.393 73.7236 24.5558 77.5276 32.0123Z" fill="#E80C00"/>
<path d="M44.738 39.403L38.8714 40.0683L33.6626 46.5763L30.4551 42.3258L26.2585 43.0383L26.8175 38.4791L23.1296 36.2943L29.9576 31.4946C29.9576 31.4946 31.821 29.7451 30.491 27.7663C29.1611 25.7868 26.3147 23.3488 28.1699 21.8765C30.0242 20.4049 32.257 20.1899 33.2003 21.1872C34.1429 22.1852 38.1274 23.8215 38.1274 23.8215L40.761 19.7359L44.2271 15.6749L45.3622 19.4512L50.747 20.8515L50.2136 24.5798L53.8767 27.5955L46.6396 31.9696L44.738 39.403Z" fill="#E8EC5C"/>
<path d="M26.8816 83.8845C25.5239 83.5181 19.5464 79.099 17.1248 72.7094C14.7025 66.3198 13.4715 61.8378 15.9747 56.5323C18.478 51.2269 23.1458 47.3592 27.7499 48.7244C30.5244 49.55 33.0427 51.0695 35.0671 53.1382C35.0671 53.1382 43.6543 50.9377 47.2477 55.2031C50.8411 59.4686 52.5539 65.7886 48.8121 72.1018C45.0696 78.4149 35.0971 83.5376 32.2754 84.1182C30.493 84.5663 28.6183 84.4854 26.8816 83.8845Z" fill="#FF6E7A"/>
<path d="M48.8119 72.1017C45.0694 78.4157 35.0976 83.5376 32.2752 84.119C30.4927 84.5663 28.6188 84.4854 26.8813 83.8845C25.7409 83.4829 24.6238 83.0161 23.5359 82.4871C23.7734 82.4496 26.198 81.9559 26.4625 81.9019C29.2849 81.3205 38.0916 77.4589 41.8334 71.1457C45.5751 64.8325 43.2772 58.5118 39.6837 54.2471C39.1683 53.6447 38.6041 53.0842 37.9979 52.5725C40.6061 52.5478 45.4387 53.0558 47.2467 55.2031C50.8408 59.4679 52.5536 65.7885 48.8119 72.1017Z" fill="#FF2C43"/>
<path d="M86.723 72.5506C84.984 76.3358 80.3334 81.1055 76.3129 82.326C71.5866 83.6267 66.5531 83.2102 62.1048 81.1512C58.967 79.7329 53.2382 78.6053 47.4615 77.0011C43.0948 81.6502 37.0274 84.6172 34.384 85.3058C29.6068 86.5496 26.9927 85.7426 26.9927 85.7426C26.9927 85.7426 24.3276 85.126 20.8084 81.6457C17.9455 78.812 11.1078 67.9824 13.4979 59.0033C15.371 51.9589 19.2701 48.0905 23.5072 47.0693C23.6563 44.623 24.1628 42.2119 25.0117 39.9124L25.0881 39.2254C25.0881 39.2254 20.3715 38.0393 20.6128 36.2096C20.8533 34.3792 26.687 32.4529 27.8656 30.9993C29.0441 29.5465 29.4869 28.7898 28.8104 27.7056C28.1338 26.623 26.3873 25.5126 26.4555 23.4993C26.5461 22.3073 27.1036 21.1999 28.0072 20.4177C28.8463 19.5643 29.9882 19.075 31.1855 19.057C33.2055 19.1087 34.214 20.9114 35.2592 21.6479C36.3044 22.3852 37.0911 21.9903 38.6143 20.9039C40.1383 19.8168 42.413 14.1314 44.2614 14.0026C46.1091 13.8737 47.0164 18.6344 47.0164 18.6344L49.0926 18.5288C50.9395 18.1047 52.8291 17.8994 54.7225 17.9159C66.1418 18.08 75.2647 23.8275 79.3781 31.8625C83.4915 39.8974 84.2849 52.8625 86.3941 58.3418C88.5039 63.821 88.2567 69.2126 86.723 72.5506ZM16.6972 60.6539C15.1208 66.5783 20.1977 76.3702 22.6418 78.7806C25.6455 81.7416 27.9187 82.2683 27.9187 82.2683C27.9187 82.2683 30.1508 82.9554 34.2207 81.9012C37.5354 81.0441 46.7961 75.1197 48.3733 69.1947C50.403 61.5695 48.2512 57.0373 43.9198 55.1807C39.5868 53.324 35.1842 54.9814 35.1842 54.9814C35.1842 54.9814 32.1925 51.3295 27.5164 50.7571C22.8411 50.1847 18.7269 53.0266 16.6972 60.6539ZM48.4542 25.3035C48.0152 24.2261 49.0476 21.6382 49.0476 21.6382L44.8391 21.4801L43.6897 18.5483L41.5139 22.2556C41.5139 22.2556 42.3283 23.608 41.8286 24.3048C41.3288 25.0023 37.3676 26.0872 35.95 25.8145C34.5324 25.541 33.6378 23.8597 32.3064 22.819C31.683 22.2751 30.7831 22.1844 30.0639 22.5942C29.6106 23.285 29.648 24.1879 30.156 24.8382C31.1203 26.2259 32.7514 27.2149 32.9402 28.6429C33.129 30.0718 31.8081 33.9461 31.0791 34.4017C30.3508 34.8572 29.0449 33.9671 29.0449 33.9671L25.2012 35.9122L28.0693 37.2286L27.9779 41.4252C27.9779 41.4252 30.6318 40.5523 31.6845 41.0528C32.7379 41.5533 33.2354 44.4094 33.2354 44.4094C33.2354 44.4094 38.0216 38.309 39.2819 37.9269C40.3009 37.6175 43.208 37.6272 44.2891 37.6422C44.3386 36.5663 44.5019 33.6727 44.8721 32.6777C45.3298 31.4451 51.7232 27.0463 51.7232 27.0463C51.7232 27.0463 48.8933 26.3809 48.4542 25.3035ZM83.3611 61.1904C81.2542 55.7111 79.7025 40.2271 76.7752 34.3073C72.7742 26.2176 64.7504 21.806 53.3296 21.6419C52.9145 21.6359 52.5054 21.6494 52.1001 21.6719L51.8079 24.5595C51.8079 24.5595 53.7132 24.4891 54.676 25.8767C55.6388 27.2636 55.2379 28.5568 54.1335 29.5945C53.0284 30.6337 48.0556 33.4689 47.7402 33.9941C47.4255 34.5193 47.5064 37.4242 47.5716 38.9661C47.6128 39.9282 47.2562 40.3268 46.9857 40.4879C46.8059 40.7508 46.3855 41.0805 45.4243 40.9824C43.8838 40.825 40.9782 40.5725 40.4335 40.8565C39.8888 41.1397 36.7532 45.9169 35.6473 46.9554C34.5414 47.9939 33.2227 48.3153 31.8905 47.2753C30.5591 46.2339 30.7419 44.3427 30.7419 44.3427L27.4587 44.4776C27.386 45.0043 27.3313 45.5363 27.3074 46.081C27.2946 46.3545 27.2909 46.6212 27.2849 46.8895C30.6078 47.4139 33.706 48.893 36.2032 51.1467C39.5726 50.4289 43.0798 50.7399 46.2709 52.0383C51.3493 54.2179 54.3523 60.3977 51.9622 69.376C51.5082 71.0206 50.7926 72.582 49.8441 74.0004C55.7871 75.5506 62.0531 76.9082 65.1355 78.3026C70.4979 80.7271 73.6868 79.5463 76.8943 77.7444C79.5774 76.2361 80.4293 75.4374 82.1001 72.8563C84.0968 69.7731 85.4702 66.6697 83.3611 61.1897V61.1904ZM70.3241 69.0373C68.427 67.0308 68.2367 64.1387 69.8985 62.578C71.5611 61.0166 74.4465 61.3777 76.3436 63.3842C78.2407 65.3907 78.4318 68.2828 76.7692 69.8443C75.1073 71.4049 72.2212 71.0438 70.3241 69.0373ZM72.9577 54.8188C71.0988 56.124 68.2929 55.35 66.691 53.0903C65.0891 50.8305 65.2974 47.9392 67.1593 46.6362C69.0212 45.3318 71.8241 46.105 73.426 48.3647C75.0287 50.6245 74.8181 53.5128 72.9577 54.8188ZM62.6758 37.7396C60.7861 35.3008 60.7202 32.1951 62.5274 30.803C64.3353 29.4109 67.3316 30.2606 69.2212 32.7001C71.1101 35.1397 71.176 38.2446 69.3688 39.6367C67.5616 41.0288 64.5654 40.1792 62.6758 37.7396ZM51.3298 48.9476C49.2087 46.7044 48.8378 43.6205 50.5004 42.0605C52.1623 40.4998 55.229 41.0513 57.3486 43.2938C59.4682 45.5363 59.8406 48.6202 58.178 50.1809C56.5154 51.7416 53.4495 51.1917 51.3298 48.9476ZM34.5706 57.2756C37.3803 58.0368 38.6435 62.4724 37.3878 67.1897C36.1328 71.9069 32.8353 75.1152 30.0241 74.357C27.213 73.5988 25.9512 69.1602 27.207 64.4437C28.4627 59.7264 31.7594 56.5173 34.5706 57.2756ZM30.9337 70.9412C32.1835 71.2783 33.8071 69.2568 34.5624 66.4269C35.3184 63.597 34.9138 61.0293 33.6648 60.6907C32.415 60.352 30.7906 62.3742 30.0354 65.2049C29.2794 68.0348 29.6825 70.6048 30.9337 70.9412Z" fill="#440911"/>
<path d="M26.3552 53.9519C25.1983 52.7494 22.8435 56.647 21.333 59.0888C20.3402 60.8458 19.6539 62.7586 19.3025 64.7456C19.3025 64.7456 21.2296 62.4761 23.5455 60.0051C25.8614 57.5326 26.287 57.5678 26.8377 56.2993C27.2401 55.368 27.512 55.1522 26.3552 53.9519Z" fill="white"/>
<path d="M52.5206 44.1997C53.2332 43.5306 54.5346 43.7539 55.4277 44.6979C56.3208 45.642 56.4662 46.9494 55.7544 47.6185C55.0419 48.2876 53.7404 48.0643 52.8473 47.1203C51.9542 46.1762 51.8081 44.8688 52.5206 44.1997ZM68.6842 48.7896C69.6178 48.2636 70.8009 48.5783 71.3486 49.4999C72.0379 50.3181 71.939 51.5386 71.1275 52.2346C70.1932 52.7614 69.0102 52.4452 68.4632 51.5236C67.7754 50.7054 67.8735 49.4864 68.6842 48.7896ZM71.709 64.4909C72.2462 63.7701 73.1767 63.4629 74.0369 63.7214C74.8978 63.9799 75.5047 64.7494 75.5556 65.6462C75.6073 66.5438 75.0918 67.377 74.2661 67.7314C73.4405 68.0866 72.4807 67.8865 71.8655 67.2317C71.0788 66.5116 71.0099 65.2956 71.709 64.4909ZM64.3281 33.128C65.1028 32.5316 66.3765 32.8807 67.1707 33.908C67.9649 34.9344 67.9837 36.2494 67.209 36.8473C66.435 37.4452 65.1605 37.0938 64.3663 36.0673C63.5721 35.0408 63.5534 33.7244 64.3281 33.128Z" fill="#FFDE4D"/>
</svg>
