<svg width="19" height="22" viewBox="0 0 19 22" fill="none" xmlns="http://www.w3.org/2000/svg">
<path d="M9.88601 7.51408L9.96825 6.80947C10.1954 4.86364 11.1869 3.32727 12.9128 2.15447L12.6872 1.78217C11.9364 2.29017 11.3233 2.86063 10.8417 3.48848L10.2564 4.25176L9.96798 3.33409C9.76159 2.6773 9.44459 2.14214 9.02396 1.72151C8.21811 0.915661 6.98095 0.476773 5.26135 0.500944L5.26132 0.500944L5.04993 0.5039L5.04697 0.715335C5.02292 2.43506 5.4617 3.67209 6.26761 4.47797L6.26762 4.47798C6.93179 5.14215 7.88707 5.55438 9.16475 5.66708L9.71381 5.71551L9.61226 6.25726C9.57111 6.47677 9.53991 6.70215 9.51832 6.93321L9.4656 7.49718L8.91254 7.37489C8.70423 7.32883 8.4825 7.27203 8.26543 7.21643L8.26462 7.21623C7.3611 6.98481 6.33214 6.72672 5.27023 6.8731C4.24216 7.01482 3.13735 7.5448 2.11141 9.00426L1.70436 8.71811L2.11141 9.00426C1.15841 10.3599 0.840232 12.2373 1.27344 14.4827L1.27344 14.4827C1.52888 15.8069 2.04263 17.1621 2.68388 18.3086C3.33057 19.4647 4.07981 20.3602 4.77866 20.815L4.77868 20.815C6.50161 21.9363 7.92664 21.4233 8.88545 21.074C8.88546 21.074 8.88547 21.074 8.88547 21.074L8.88963 21.0724C9.00507 21.0304 9.14567 20.9792 9.27249 20.9385C9.33677 20.9179 9.40431 20.8977 9.46797 20.8823C9.52232 20.8692 9.60982 20.8501 9.70029 20.8501C9.79079 20.8501 9.8783 20.8692 9.93265 20.8823C9.99631 20.8978 10.0638 20.9179 10.1281 20.9385C10.2544 20.979 10.3944 21.03 10.5096 21.0719L10.5151 21.0739L10.5151 21.074C11.0466 21.2676 11.6941 21.5 12.4559 21.5C13.0884 21.5 13.8175 21.3385 14.6219 20.815C15.3208 20.3602 16.07 19.4646 16.7167 18.3085C17.3579 17.1621 17.8717 15.8068 18.1271 14.4827L9.88601 7.51408ZM9.88601 7.51408L10.5773 7.35464M9.88601 7.51408L10.5773 7.35464M10.5773 7.35464C10.757 7.31318 10.9456 7.26487 11.1309 7.2174L11.1358 7.21614C12.0393 6.9847 13.0682 6.72661 14.1301 6.873M10.5773 7.35464L14.1301 6.873M14.1301 6.873C15.1582 7.01472 16.263 7.54471 17.289 9.00418L14.1301 6.873Z" stroke="white"/>
</svg>
