<svg width="19" height="22" viewBox="0 0 19 22" fill="none" xmlns="http://www.w3.org/2000/svg">
<g clip-path="url(#clip0_274956_734)">
<path fill-rule="evenodd" clip-rule="evenodd" d="M0.449119 14.5774C0.981543 17.3374 2.58225 20.1991 4.17257 21.234C6.1108 22.4955 7.74618 21.8997 8.72325 21.5438C8.96005 21.4575 9.25473 21.3501 9.36692 21.3501C9.47894 21.3501 9.77289 21.4572 10.0095 21.5434L10.0109 21.5439C10.5404 21.7368 11.263 22 12.1225 22C12.8491 22 13.6734 21.8118 14.5613 21.234C16.1516 20.1991 17.7523 17.3373 18.2847 14.5774C18.7354 12.2406 18.4172 10.214 17.3647 8.71663C15.3605 5.86571 12.9462 6.18089 11.1824 6.60537C11.0077 6.64742 10.8393 6.69055 10.6784 6.73178L10.6766 6.73222C10.489 6.78028 10.3053 6.82733 10.1315 6.86743C10.1757 6.48913 10.2509 6.12737 10.3576 5.78164C10.7935 4.36937 11.7538 3.22454 13.2595 2.31198L12.5152 1.08528C12.2221 1.26292 11.9456 1.44937 11.6857 1.64449C11.3914 1.86542 11.1184 2.09748 10.8667 2.3405C10.5891 2.60848 10.3374 2.88979 10.1116 3.1842C9.99456 2.81171 9.8436 2.46998 9.65868 2.16002C9.48411 1.8674 9.27928 1.6031 9.04414 1.36796C8.11189 0.435707 6.72452 -0.0243583 4.92095 0.000993246L4.2234 0.0107471L4.21365 0.708343C4.18842 2.512 4.64836 3.89924 5.58069 4.83153C5.779 5.02984 5.99796 5.20668 6.23717 5.36198C6.68714 5.65413 7.20875 5.87006 7.7993 6.00927C7.93549 6.04137 8.07535 6.0694 8.21885 6.09334C8.40245 6.12397 8.59201 6.14791 8.78744 6.16515C8.74332 6.40057 8.71006 6.6412 8.68711 6.88668C8.48812 6.84268 8.27426 6.78794 8.05516 6.73183C7.94252 6.70298 7.82625 6.6732 7.7067 6.6435C7.16715 6.5095 6.56082 6.3773 5.92021 6.34056C4.45279 6.25642 2.80549 6.6732 1.36899 8.71671C0.316389 10.2141 -0.00170842 12.2407 0.449119 14.5774ZM9.48932 5.22317C9.52623 5.11929 9.56561 5.01675 9.60747 4.91556L9.15761 3.48399C8.97238 2.89456 8.69408 2.43211 8.33703 2.07506C7.69698 1.43501 6.69529 1.02722 5.21398 1.0013C5.23997 2.48277 5.64769 3.48435 6.2878 4.12442C6.84868 4.6853 7.68249 5.0638 8.87531 5.16902L9.48932 5.22317ZM9.58558 8.01961L10.3563 7.84184C10.5419 7.79903 10.7354 7.74945 10.9187 7.7025L10.9265 7.7005C11.8407 7.4663 12.7777 7.23725 13.7285 7.36831C14.6115 7.49005 15.596 7.93947 16.5466 9.29173C17.4 10.5058 17.7183 12.2338 17.3028 14.3881C17.0581 15.6563 16.5639 16.9614 15.9469 18.0644C15.3191 19.1869 14.6184 20.0038 14.0158 20.3959C13.2948 20.8651 12.661 21 12.1225 21C11.4587 21 10.8863 20.7985 10.3529 20.6042L10.3438 20.6009C10.231 20.5598 10.0832 20.5059 9.94747 20.4624C9.87757 20.44 9.79725 20.4158 9.71703 20.3964C9.65544 20.3815 9.51987 20.3501 9.36692 20.3501L9.3866 8.0655L9.58558 8.01961Z" fill="white"/>
</g>
<defs>
<clipPath id="clip0_274956_734">
<rect width="19" height="22" fill="white"/>
</clipPath>
</defs>
</svg>
