<svg width="19" height="22" viewBox="0 0 19 22" fill="none" xmlns="http://www.w3.org/2000/svg">
<g clip-path="url(#clip0_274956_712)">
<path d="M17.3647 8.71663C15.162 5.58327 12.4638 6.27442 10.6784 6.73178C10.4902 6.77999 10.3059 6.82721 10.1315 6.86743C10.356 4.94381 11.3852 3.44794 13.2595 2.31198L12.5158 1.08488C11.5247 1.68554 10.7231 2.38683 10.1116 3.1842C9.88405 2.46005 9.52835 1.85217 9.04414 1.36796C8.11189 0.435707 6.72452 -0.0243583 4.92095 0.000993246L4.2234 0.0107471L4.21365 0.708343C4.18842 2.512 4.64836 3.89924 5.58069 4.83153C6.34816 5.59899 7.42491 6.04496 8.78744 6.16515C8.74332 6.40057 8.71006 6.6412 8.68711 6.88668C8.48813 6.84268 8.2744 6.78798 8.0553 6.73186C6.26982 6.27455 3.57161 5.58335 1.36899 8.71671C0.316389 10.2141 -0.00170842 12.2407 0.449119 14.5774C0.981543 17.3374 2.58225 20.1991 4.17257 21.234C6.1108 22.4955 7.74618 21.8997 8.72325 21.5438C8.96005 21.4575 9.25473 21.3501 9.36692 21.3501C9.47911 21.3501 9.77379 21.4575 10.0106 21.5438C10.5401 21.7366 11.2629 22 12.1225 22C12.8491 22 13.6734 21.8118 14.5613 21.234C16.1516 20.1991 17.7523 17.3373 18.2847 14.5774C18.7354 12.2406 18.4172 10.214 17.3647 8.71663Z" fill="white"/>
</g>
<defs>
<clipPath id="clip0_274956_712">
<rect width="19" height="22" fill="white"/>
</clipPath>
</defs>
</svg>
