<svg width="19" height="22" viewBox="0 0 19 22" fill="none" xmlns="http://www.w3.org/2000/svg">
<g clip-path="url(#clip0_274956_722)">
<path fill-rule="evenodd" clip-rule="evenodd" d="M9.58558 8.01961L10.3563 7.84184C10.5419 7.79903 10.7354 7.74945 10.9187 7.7025L10.9265 7.7005C11.8407 7.4663 12.7777 7.23725 13.7285 7.36831C14.6115 7.49005 15.596 7.93947 16.5466 9.29173C17.4 10.5058 17.7183 12.2338 17.3028 14.3881C17.0581 15.6563 16.5639 16.9614 15.9469 18.0644C15.3191 19.1869 14.6184 20.0038 14.0158 20.3959C13.2948 20.8651 12.661 21 12.1225 21C11.4587 21 10.8863 20.7985 10.3529 20.6042L10.3438 20.6009C10.231 20.5598 10.0832 20.5059 9.94747 20.4624C9.87757 20.44 9.79725 20.4158 9.71703 20.3964C9.65544 20.3815 9.51987 20.3501 9.36692 20.3501C9.21401 20.3501 9.07848 20.3815 9.01687 20.3964C8.93665 20.4158 8.85633 20.4399 8.78641 20.4624C8.6501 20.5061 8.50169 20.5602 8.38857 20.6014L8.38095 20.6042C7.44039 20.9468 6.22569 21.3771 4.71804 20.3959C4.1155 20.0038 3.41474 19.1869 2.78688 18.0645C2.16989 16.9614 1.67568 15.6563 1.43102 14.388C1.01543 12.2339 1.33368 10.5058 2.18708 9.2918C3.13765 7.93956 4.12206 7.49015 5.00513 7.36842C5.95589 7.23735 6.89289 7.46641 7.80718 7.70059L7.81228 7.7019C8.02637 7.75673 8.2548 7.81524 8.47121 7.86309L8.99499 7.97891L9.3866 8.0655L9.58558 8.01961ZM4.17257 21.234C2.58225 20.1991 0.981543 17.3374 0.449119 14.5774C-0.00170842 12.2407 0.316389 10.2141 1.36899 8.71671C2.80549 6.6732 4.45279 6.25642 5.92021 6.34056C6.56082 6.3773 7.16715 6.5095 7.7067 6.6435C7.82625 6.6732 7.94252 6.70298 8.05516 6.73183C8.27426 6.78794 8.48812 6.84268 8.68711 6.88668C8.71006 6.6412 8.74332 6.40057 8.78744 6.16515C8.59201 6.14791 8.40245 6.12397 8.21885 6.09334C8.07535 6.0694 7.93549 6.04137 7.7993 6.00927C7.20875 5.87006 6.68714 5.65413 6.23717 5.36198C5.99796 5.20668 5.779 5.02984 5.58069 4.83153C4.64836 3.89924 4.18842 2.512 4.21365 0.708343L4.2234 0.0107471L4.92095 0.000993246C6.72452 -0.0243583 8.11189 0.435707 9.04414 1.36796C9.27928 1.6031 9.48411 1.8674 9.65868 2.16002C9.8436 2.46998 9.99456 2.81171 10.1116 3.1842C10.3374 2.88979 10.5891 2.60848 10.8667 2.3405C11.1184 2.09748 11.3914 1.86542 11.6857 1.64449C11.9456 1.44937 12.2221 1.26292 12.5152 1.08528L13.2595 2.31198C11.7538 3.22454 10.7935 4.36937 10.3576 5.78164C10.2509 6.12737 10.1757 6.48913 10.1315 6.86743C10.3053 6.82733 10.489 6.78028 10.6766 6.73222L10.6784 6.73178C10.8393 6.69055 11.0077 6.64742 11.1824 6.60537C12.9462 6.18089 15.3605 5.86571 17.3647 8.71663C18.4172 10.214 18.7354 12.2406 18.2847 14.5774C17.7523 17.3373 16.1516 20.1991 14.5613 21.234C13.6734 21.8118 12.8491 22 12.1225 22C11.263 22 10.5404 21.7368 10.0109 21.5439L10.0095 21.5434C9.77289 21.4572 9.47894 21.3501 9.36692 21.3501C9.25473 21.3501 8.96005 21.4575 8.72325 21.5438C7.74618 21.8997 6.1108 22.4955 4.17257 21.234ZM9.60747 4.91556C9.56561 5.01675 9.52623 5.11929 9.48932 5.22317L8.87531 5.16902C7.68249 5.0638 6.84868 4.6853 6.2878 4.12442C5.64769 3.48435 5.23997 2.48277 5.21398 1.0013C6.69529 1.02722 7.69698 1.43501 8.33703 2.07506C8.69408 2.43211 8.97238 2.89456 9.15761 3.48399L9.60747 4.91556Z" fill="white"/>
</g>
<defs>
<clipPath id="clip0_274956_722">
<rect width="19" height="22" fill="white"/>
</clipPath>
</defs>
</svg>
