<svg width="25" height="24" viewBox="0 0 25 24" fill="none" xmlns="http://www.w3.org/2000/svg">
<path d="M12.5 21C17.4706 21 21.5 16.9706 21.5 12C21.5 7.02944 17.4706 3 12.5 3C7.52944 3 3.5 7.02944 3.5 12C3.5 16.9706 7.52944 21 12.5 21Z" fill="#FEDA2C"/>
<path d="M12.5 18.9379C16.3317 18.9379 19.4379 15.8317 19.4379 12C19.4379 8.16831 16.3317 5.06211 12.5 5.06211C8.66831 5.06211 5.56211 8.16831 5.56211 12C5.56211 15.8317 8.66831 18.9379 12.5 18.9379Z" fill="#FCAA17"/>
<path d="M12.5 6.66821L14.0778 9.86526L17.6058 10.3779L15.053 12.8665L15.6557 16.3803L12.5 14.7213L9.34432 16.3803L9.947 12.8665L7.394 10.3779L10.9222 9.86526L12.5 6.66821Z" fill="#FEDA2C"/>
</svg>
