<svg width="100" height="100" viewBox="0 0 100 100" fill="none" xmlns="http://www.w3.org/2000/svg">
<path d="M49.9996 14.0793C30.1853 14.0793 14.0793 30.1367 14.0793 50C14.0793 69.8155 30.1366 85.9207 49.9996 85.9207C69.8149 85.9207 85.9199 69.8633 85.9199 50C85.9199 30.1367 69.8149 14.0793 49.9996 14.0793ZM49.9996 61.9086C43.4111 61.9086 38.0424 56.5399 38.0424 49.9513C38.0424 43.3627 43.4111 37.9939 49.9996 37.9939C56.5881 37.9939 61.9568 43.3627 61.9568 49.9513C61.9568 56.5896 56.5891 61.9086 49.9996 61.9086Z" fill="#EDB66B"/>
<path d="M33.7863 61.7118C32.8987 61.7118 32.1514 61.3844 31.5902 60.8242C30.2816 59.4688 30.3284 57.1333 30.4219 54.3768C30.4687 51.9935 30.5622 49.0032 29.4408 47.836C29.2069 47.5553 28.7402 47.2289 27.6655 47.1822H27.4784C26.3102 47.1822 25.4693 47.416 25.0016 47.9295C24.0672 48.9107 24.2075 51.1069 24.3011 52.8822C24.4414 54.751 24.5349 56.3869 23.4602 57.3213C22.6661 58.0687 21.5914 58.4428 20.4232 58.4428C18.1335 58.4428 15.4238 56.8546 14.5362 54.9858C14.4436 54.7978 14.3969 54.6574 14.3969 54.4704L14.3501 54.0027C14.2098 52.2274 14.0227 50.265 14.0227 49.4242C14.0227 29.6135 30.1413 13.5414 49.904 13.5414C69.6667 13.5414 85.7862 29.6603 85.7862 49.4242C85.7862 50.2183 85.7395 51.0591 85.6927 51.8542C85.5056 54.3301 83.4965 56.2457 81.0675 56.2457C80.554 56.2457 79.9928 56.1521 79.4793 55.965C77.1428 55.0774 75.1805 53.3957 73.3117 51.7597C70.602 49.3764 68.0317 47.1812 64.3876 47.0877C62.0979 47.0409 60.0421 45.7791 58.9683 43.8167C56.3522 38.9576 56.0248 38.7705 49.4373 38.7705C37.2901 38.7705 37.2901 45.592 37.2901 47.835C37.2901 49.0968 37.3836 50.4511 37.4304 51.7597C37.6642 55.5909 37.8513 58.9544 36.2154 60.6839C35.7019 61.3386 34.8143 61.7118 33.7863 61.7118Z" fill="#86522C"/>
<path d="M49.9984 15.0838C68.967 15.0838 84.385 30.4553 84.385 49.4709C84.385 50.265 84.3383 51.0591 84.2915 51.8074C84.1512 53.4892 82.7501 54.751 81.2087 54.751C80.8813 54.751 80.5081 54.7042 80.1807 54.5639C74.9475 52.6015 71.5373 45.7333 64.5766 45.5939C62.8948 45.5472 61.2589 44.6128 60.4648 43.1171C57.5213 37.6042 56.5401 37.2768 49.5784 37.2768C41.8226 37.2768 35.8889 39.893 35.8889 47.8359C35.8889 53.5359 37.3377 60.1704 33.833 60.1704C29.2078 60.1704 35.6083 45.8736 27.7599 45.6865H27.5261C19.9106 45.6865 24.1158 54.751 22.5277 56.2456C21.9664 56.7601 21.2659 56.9462 20.5186 56.9462C18.6498 56.9462 16.5939 55.6376 16.0327 54.3768C15.9391 53.3956 15.7053 50.4521 15.7053 49.4709C15.6117 30.4553 31.0298 15.0838 49.9984 15.0838ZM49.9984 12C29.3481 12 12.5747 28.7736 12.5747 49.4242C12.5747 50.3118 12.7618 52.3209 12.9021 54.143L12.9489 54.6097C12.9956 54.9838 13.0892 55.357 13.2295 55.6844C14.3977 58.1135 17.5751 59.9833 20.4718 59.9833C22.0132 59.9833 23.4153 59.4688 24.5368 58.4876C26.1717 57.0397 26.0314 54.8903 25.8911 52.7876C25.8443 51.7129 25.6573 49.5167 26.1717 49.0032C26.2653 48.9097 26.6852 48.7226 27.5261 48.7226H27.6664C27.8067 48.7226 28.2266 48.7226 28.3669 48.8629C29.0675 49.5635 28.9739 52.6473 28.9272 54.3291C28.8336 57.2726 28.7869 60.0758 30.5154 61.8511C31.3562 62.7388 32.5245 63.2065 33.833 63.2065C35.2819 63.2065 36.5427 62.692 37.4771 61.665C39.5329 59.4688 39.3459 55.8247 39.112 51.6194C39.0185 50.3576 38.9717 49.0032 38.9717 47.7882C38.9717 45.5452 38.9717 40.2662 49.5775 40.2662C55.5112 40.2662 55.5112 40.2662 57.7532 44.5183C59.0618 46.9941 61.6779 48.5365 64.4811 48.5833C67.5649 48.6301 69.8078 50.5914 72.4239 52.8812C74.433 54.6097 76.4889 56.4327 79.0583 57.3671C79.7121 57.601 80.4604 57.7413 81.1609 57.7413C84.385 57.7413 87.0947 55.2177 87.2808 51.9477C87.3276 51.1069 87.3743 50.2192 87.3743 49.3784C87.423 28.8204 70.6497 12 49.9984 12Z" fill="#4C2F1B"/>
<path d="M55.1547 83.097C55.4149 83.7771 56.4828 84.0002 57.5399 83.5949C58.5971 83.1906 59.2431 82.3117 58.9829 81.6316C58.7228 80.9515 57.6549 80.7293 56.5977 81.1337C55.5406 81.539 54.8946 82.4179 55.1547 83.097Z" fill="#E3A358"/>
<path d="M74.848 70.5141C75.303 71.7029 76.4099 72.5389 77.7516 72.7074C79.0933 72.875 80.4651 72.3498 81.3518 71.3297C82.2384 70.3086 82.5044 68.9474 82.0494 67.7587C81.5944 66.569 80.4875 65.7339 79.1459 65.5654C77.8042 65.3978 76.4313 65.923 75.5447 66.9431C74.658 67.9642 74.393 69.3254 74.848 70.5141Z" fill="#E3A358"/>
<path d="M40.8407 85.3439C41.2957 86.5326 42.4026 87.3686 43.7443 87.5372C45.0859 87.7048 46.4588 87.1796 47.3454 86.1594C48.2321 85.1383 48.4981 83.7771 48.0431 82.5884C47.588 81.3997 46.4812 80.5637 45.1395 80.3951C43.7978 80.2276 42.425 80.7527 41.5383 81.7729C40.6517 82.794 40.3857 84.1552 40.8407 85.3439Z" fill="#E3A358"/>
<path d="M33.3548 79.8514C34.069 80.0132 34.7841 79.9186 35.2323 79.602C35.6796 79.2853 35.7906 78.7962 35.5237 78.3168C35.2567 77.8384 34.6526 77.4428 33.9384 77.281C33.2242 77.1183 32.509 77.2138 32.0608 77.5305C31.6136 77.8471 31.5025 78.3363 31.7695 78.8147C32.0355 79.2941 32.6406 79.6887 33.3548 79.8514Z" fill="#E3A358"/>
<path d="M48.6432 65.3462C49.2385 65.4816 49.8192 65.4709 50.167 65.317C50.5149 65.163 50.5763 64.8912 50.3297 64.6028C50.0823 64.3144 49.5629 64.0532 48.9676 63.9178C48.3723 63.7823 47.7916 63.7931 47.4437 63.947C47.0959 64.101 47.0345 64.3728 47.281 64.6612C47.5285 64.9506 48.0478 65.2108 48.6432 65.3462Z" fill="#E3A358"/>
<path d="M21.758 68.694C22.2179 68.7983 22.6788 68.7311 22.9691 68.5187C23.2595 68.3053 23.3326 67.9789 23.164 67.6622C22.9945 67.3445 22.6077 67.0854 22.1487 66.9811C21.6889 66.8769 21.228 66.9431 20.9386 67.1565C20.6482 67.3689 20.5742 67.6963 20.7437 68.013C20.9113 68.3296 21.2991 68.5898 21.758 68.694Z" fill="#E3A358"/>
<path d="M40.2708 61.9067C40.8769 62.3179 41.5199 62.5751 41.9584 62.5809C42.3969 62.5868 42.5644 62.3403 42.3969 61.9349C42.2302 61.5286 41.7538 61.0258 41.1477 60.6147C40.5417 60.2035 39.8986 59.9463 39.4592 59.9404C39.0207 59.9346 38.8541 60.1811 39.0207 60.5864C39.1883 60.9927 39.6648 61.4955 40.2708 61.9067Z" fill="#E3A358"/>
<path d="M50.0005 88C29.0462 88 12 70.9536 12 50.001C12 29.0464 29.0462 12 50.0005 12C70.9538 12 88 29.0464 88 50.001C88 70.9536 70.9528 88 50.0005 88ZM50.0005 16.1586C31.3671 16.1586 16.2082 31.3186 16.2082 49.9513C16.2082 68.584 31.3681 83.744 50.0005 83.744C68.6329 83.744 83.7928 68.5849 83.7928 49.9513C83.7928 31.3176 68.6329 16.1586 50.0005 16.1586ZM50.0005 64.0366C42.2603 64.0366 35.9641 57.7403 35.9641 50.001C35.9641 42.2344 42.2603 35.9156 50.0005 35.9156C57.7397 35.9156 64.0359 42.2119 64.0359 49.9523C64.0359 57.7179 57.7397 64.0366 50.0005 64.0366ZM50.0005 40.1219C44.5802 40.1219 40.1713 44.5319 40.1713 49.9513C40.1713 55.3707 44.5812 59.7806 50.0005 59.7806C55.4198 59.7806 59.8297 55.3707 59.8297 49.9513C59.8287 44.5319 55.4198 40.1219 50.0005 40.1219Z" fill="#4C2F1B"/>
<path d="M52.0494 30.3804L43.8503 24.9629C43.5083 24.7671 43.4596 24.3286 43.6544 23.9866L44.582 22.6206C44.7769 22.2786 45.2163 22.2298 45.5583 22.4247L53.7574 27.8422C54.0994 28.038 54.1482 28.4774 53.9523 28.8185L53.0247 30.1855C52.8308 30.5265 52.3914 30.5752 52.0494 30.3804Z" fill="#DB79AD"/>
<path d="M19.4966 38.9702L21.644 34.2855C21.7902 33.9435 22.2296 33.7974 22.5716 33.9435L24.0848 34.6265C24.4268 34.7727 24.5729 35.2121 24.4268 35.5541L22.2793 40.2388C22.1322 40.5808 21.6937 40.727 21.3517 40.5808L19.8386 39.8978C19.4966 39.702 19.3017 39.3122 19.4966 38.9702ZM72.7914 38.5795L68.6913 35.407C68.399 35.1634 68.3493 34.724 68.5452 34.4307L69.5702 33.1134C69.8138 32.821 70.2532 32.7714 70.5465 32.9672L74.6465 36.1397C74.9388 36.3843 74.9885 36.8227 74.7927 37.116L73.7677 38.4343C73.5241 38.7753 73.0847 38.8231 72.7914 38.5795Z" fill="#F6B173"/>
<path d="M62.4936 31.9422L59.6632 25.5484C59.517 25.2064 59.6632 24.767 60.0052 24.6209L61.5173 23.9378C61.8593 23.7917 62.2988 23.9378 62.4449 24.2798L65.2754 30.6736C65.4216 31.0156 65.2754 31.454 64.9334 31.6012L63.4202 32.2842C63.0802 32.4303 62.6895 32.2832 62.4936 31.9422ZM31.0632 43.8508L28.2327 37.4571C28.0865 37.1151 28.2327 36.6766 28.5747 36.5295L30.0878 35.8464C30.4298 35.7003 30.8683 35.8464 31.0154 36.1884L33.8459 42.5822C33.992 42.9242 33.8459 43.3636 33.5039 43.5098L31.9907 44.1928C31.601 44.3877 31.2103 44.1928 31.0632 43.8508Z" fill="#F7E774"/>
<path d="M32.3814 30.6239L35.3103 24.2788C35.4564 23.9368 35.8958 23.7907 36.2378 23.9368L37.751 24.6199C38.093 24.766 38.2391 25.2055 38.093 25.5475L35.1641 31.8925C35.018 32.2345 34.5785 32.3806 34.2365 32.2345L32.7234 31.5515C32.3814 31.4053 32.2352 31.0146 32.3814 30.6239ZM76.452 46.5352L77.4283 39.6045C77.4771 39.2138 77.819 38.9702 78.2098 39.019L79.8691 39.2625C80.2598 39.3113 80.5034 39.6533 80.4547 40.043L79.4784 46.9736C79.4296 47.3634 79.0877 47.6079 78.6979 47.5592L77.0386 47.3156C76.6469 47.2669 76.4033 46.9259 76.452 46.5352Z" fill="#EC6A69"/>
<path d="M28.751 70.4196C29.092 70.595 29.4711 70.632 29.7458 70.518C30.0196 70.404 30.1473 70.1556 30.08 69.8662C30.0128 69.5768 29.7604 69.2913 29.4194 69.1159C29.0784 68.9405 28.6994 68.9035 28.4246 69.0175C28.1508 69.1315 28.0232 69.38 28.0904 69.6694C28.1576 69.9578 28.409 70.2442 28.751 70.4196Z" fill="#E3A358"/>
<path d="M64.6382 72.1345C64.7249 72.3625 65.0844 72.4667 65.5784 72.4073C66.0734 72.3488 66.6297 72.1355 67.037 71.849C67.4443 71.5625 67.6421 71.2449 67.5554 71.0169C67.4677 70.7889 67.1091 70.6846 66.6141 70.7431C66.1192 70.8016 65.5628 71.014 65.1555 71.3014C64.7483 71.5888 64.5505 71.9065 64.6382 72.1345Z" fill="#E3A358"/>
<path d="M42.7288 69.5739C43.1916 69.9159 43.7411 70.0669 44.1699 69.9705C44.5986 69.874 44.8422 69.5447 44.8071 69.1062C44.773 68.6687 44.467 68.1874 44.0042 67.8454C43.5414 67.5034 42.9919 67.3523 42.5632 67.4488C42.1345 67.5453 41.8909 67.8746 41.9259 68.3131C41.9591 68.7525 42.266 69.2329 42.7288 69.5739Z" fill="#E3A358"/>
<path d="M56.4038 76.1226C56.4593 76.523 57.002 76.7783 57.6159 76.6936C58.2307 76.6088 58.6828 76.2152 58.6272 75.8147C58.5717 75.4142 58.029 75.158 57.4152 75.2437C56.8003 75.3285 56.3482 75.7221 56.4038 76.1226Z" fill="#E3A358"/>
</svg>
