<svg width="36" height="36" viewBox="0 0 36 36" fill="none" xmlns="http://www.w3.org/2000/svg">
<path d="M34.711 11.2829C35.2528 7.38783 35.1325 4.20647 35.1239 4.00144L35.0687 2.67758L33.753 2.83309C33.6175 2.84905 31.6827 3.09091 29.3476 4.01904C26.251 1.50268 22.3019 -0.00615311 18 -0.00615311C13.6982 -0.00615311 9.74914 1.50268 6.65208 4.01945C4.31701 3.09131 2.38176 2.84946 2.24671 2.8335L0.931035 2.67799L0.875789 4.00185C0.867195 4.20688 0.746881 7.38865 1.2887 11.2837C0.453872 13.3585 -0.00610352 15.6256 -0.00610352 18C-0.00610352 27.9447 8.05533 36.0062 18 36.0062C27.9448 36.0062 36.0062 27.9447 36.0062 18C36.0062 15.6256 35.5462 13.3585 34.711 11.2829ZM31.8816 17.6992C29.549 23.7558 25.7345 23.3945 25.7345 23.3945C25.8646 23.7857 26.4474 24.8067 26.8804 25.8908C27.342 27.0469 27.8216 28.0188 27.617 28.2643C27.4124 28.5099 21.8059 28.7554 21.5604 29.0419C21.3148 29.3283 20.7419 30.9243 20.2508 31.3745C19.7597 31.8246 18.7367 31.9474 18 31.9474C17.2634 31.9474 16.2404 31.8246 15.7493 31.3745C15.2582 30.9243 14.6853 29.3283 14.4397 29.0419C14.1942 28.7554 8.58774 28.5099 8.38313 28.2643C8.17851 28.0188 8.65813 27.0469 9.11974 25.8908C9.55271 24.8067 10.1355 23.7857 10.2656 23.3945C10.2656 23.3945 6.45115 23.7558 4.11853 17.6992C1.78592 11.6426 2.10266 4.0526 2.10266 4.0526C2.10266 4.0526 7.34409 4.67299 10.8492 8.05365C14.4737 11.5501 15.5856 18.2382 15.5856 18.2382C15.5856 18.2382 16.445 18.1563 18 18.1563C19.5551 18.1563 20.4145 18.2382 20.4145 18.2382C20.4145 18.2382 21.5264 11.5501 25.1514 8.05365C28.656 4.67299 33.8978 4.0526 33.8978 4.0526C33.8978 4.0526 34.2142 11.6426 31.8816 17.6992Z" fill="#003EA6"/>
<path d="M31.8816 17.6992C29.549 23.7558 25.7345 23.3945 25.7345 23.3945C25.8646 23.7857 26.4474 24.8067 26.8804 25.8908C27.342 27.0469 27.8216 28.0188 27.617 28.2643C27.4124 28.5099 21.8059 28.7554 21.5604 29.0419C21.3148 29.3283 20.7419 30.9243 20.2508 31.3745C19.7597 31.8246 18.7367 31.9474 18 31.9474C17.2634 31.9474 16.2404 31.8246 15.7493 31.3745C15.2582 30.9243 14.6853 29.3283 14.4397 29.0419C14.1942 28.7554 8.58774 28.5099 8.38313 28.2643C8.17851 28.0188 8.65813 27.0469 9.11974 25.8908C9.55271 24.8067 10.1355 23.7857 10.2656 23.3945C10.2656 23.3945 6.45115 23.7558 4.11853 17.6992C1.78592 11.6426 2.10266 4.0526 2.10266 4.0526C2.10266 4.0526 7.34409 4.67299 10.8492 8.05365C14.4737 11.5501 15.5856 18.2382 15.5856 18.2382C15.5856 18.2382 16.445 18.1563 18 18.1563C19.5551 18.1563 20.4145 18.2382 20.4145 18.2382C20.4145 18.2382 21.5264 11.5501 25.1514 8.05365C28.656 4.67299 33.8978 4.0526 33.8978 4.0526C33.8978 4.0526 34.2142 11.6426 31.8816 17.6992Z" fill="#FEFEFE"/>
<path d="M33.9261 3.88645C34.008 4.13199 32.7394 6.05537 31.7981 8.5926C30.8569 11.1298 28.9745 16.8181 28.3606 18.0868C27.7468 19.3554 23.9409 21.688 23.9409 21.688C23.9409 21.688 26.8465 18.496 27.5831 16.6954C28.3197 14.8948 30.6114 8.34706 31.4708 6.83291C32.3301 5.31876 33.8443 3.64091 33.9261 3.88645Z" fill="#003EA6"/>
<path d="M2.07445 3.88645C1.9926 4.13199 3.26122 6.05537 4.20245 8.5926C5.14368 11.1298 7.02614 16.8181 7.63999 18.0868C8.25383 19.3554 12.0597 21.688 12.0597 21.688C12.0597 21.688 9.15414 18.496 8.41753 16.6954C7.68091 14.8948 5.38922 8.34706 4.52983 6.83291C3.67045 5.31876 2.15629 3.64091 2.07445 3.88645Z" fill="#003EA6"/>
<path d="M25.0798 25.4071C25.0798 25.4071 23.2792 24.916 21.9696 25.5708C20.6601 26.2255 19.8826 27.3305 19.8826 27.3305C19.8826 27.3305 21.6423 27.8625 22.9927 27.2895C24.3432 26.7166 25.0798 25.4071 25.0798 25.4071Z" fill="#003EA6"/>
<path d="M10.9208 25.4071C10.9208 25.4071 12.7214 24.916 14.0309 25.5708C15.3405 26.2255 16.118 27.3305 16.118 27.3305C16.118 27.3305 14.3583 27.8625 13.0079 27.2895C11.6574 26.7166 10.9208 25.4071 10.9208 25.4071Z" fill="#003EA6"/>
<path d="M18.0005 29.6631C18.0414 29.6631 19.6783 29.6631 19.6783 30.4406C19.6783 31.2182 18.2869 31.1772 18.0005 31.1772C17.714 31.1772 16.3226 31.2182 16.3226 30.4406C16.3226 29.6631 17.9596 29.6631 18.0005 29.6631Z" fill="#003EA6"/>
</svg>
