<svg width="100" height="100" viewBox="0 0 100 100" fill="none" xmlns="http://www.w3.org/2000/svg">
<path d="M14.0901 60.9543V69.499H81.6529C83.5522 69.499 85.0013 60.8036 85.0013 60.8036L14.0901 60.9543Z" fill="#F2C05A"/>
<path d="M14.0893 71.5892C12.9184 71.5892 12 70.6708 12 69.499V60.9534C12 59.8014 12.9372 58.8641 14.0893 58.8641L85.051 58.7135C85.6408 58.7135 86.2511 58.9934 86.6054 59.4265C87.0128 59.9152 87.1695 60.5092 87.0505 61.1032C85.3189 71.5892 82.6921 71.5892 81.7035 71.5892H14.0893ZM81.0684 67.4594L81.2088 67.1778C81.5255 66.5444 81.8909 65.4205 82.3942 63.5332L82.5654 62.8921L16.2291 63.0445V67.4594H16.7376H81.0684Z" fill="#4C2F1B"/>
<path d="M66.8112 18.6765C65.3621 17.9267 63.563 18.127 62.3638 19.2269L14.1399 60.9543H23.1357V84.9914C23.1357 87.8399 25.4339 90.1381 28.2824 90.1381C31.131 90.1381 33.4291 87.8399 33.4291 84.9914V60.9543H38.7761V72.2979C38.7761 75.1961 41.1744 77.5953 44.0735 77.5953C46.9716 77.5953 49.3708 75.197 49.3708 72.2979V60.9543H57.0168C57.7666 63.8028 60.3156 65.9016 63.3635 65.9016C66.4124 65.9016 69.0101 63.8028 69.7103 60.9543L85.1016 60.9047C89.9479 33.2692 73.3574 21.9753 66.8112 18.6765Z" fill="#FFDE8A"/>
<path d="M50.9199 36.8667C53.8678 36.8667 56.2173 34.518 56.2173 31.5694C56.2173 29.5203 55.0678 27.8212 53.4184 26.9225L45.9727 33.3685C46.7225 35.4176 48.6209 36.8667 50.9199 36.8667Z" fill="#FF5C5C"/>
<path d="M50.9198 37.9161C48.2707 37.9161 45.8724 36.2171 44.9728 33.7186C44.823 33.3189 44.9223 32.8695 45.2724 32.5699L52.7181 26.1231C53.0177 25.8235 53.5175 25.773 53.8668 25.9733C55.9655 27.0732 57.2152 29.2215 57.2152 31.5206C57.2665 35.0675 54.418 37.9161 50.9198 37.9161ZM47.2213 33.669C47.9711 35.0188 49.3706 35.8678 50.9198 35.8678C53.2685 35.8678 55.1678 33.9694 55.1678 31.6199C55.1678 30.2709 54.5181 29.0213 53.4679 28.2218L47.2213 33.669Z" fill="#4C2F1B"/>
<path d="M68.4606 41.4143C67.8606 43.9632 69.51 46.5618 72.0581 47.1113C73.8572 47.511 75.6059 46.8614 76.7058 45.5621L72.5083 37.7166C70.5593 37.9666 68.91 39.3652 68.4606 41.4143Z" fill="#FF5C5C"/>
<path d="M73.1072 48.2609C72.7075 48.2609 72.2582 48.2112 71.8584 48.1111C68.76 47.4118 66.7614 44.3133 67.4607 41.1652C68.0102 38.8165 69.9591 37.0174 72.408 36.7178C72.8077 36.6682 73.2579 36.8676 73.4573 37.2673L77.6548 45.0631C77.8551 45.4628 77.8046 45.9122 77.505 46.2126C76.3555 47.5111 74.7566 48.2609 73.1072 48.2609ZM69.4593 41.6146C69.259 42.6143 69.4096 43.6132 69.9583 44.4126C70.5086 45.2617 71.3081 45.8617 72.307 46.062C73.4068 46.3119 74.5555 46.0123 75.4551 45.3122L72.0074 38.8662C70.7089 39.3155 69.7589 40.3144 69.4593 41.6146Z" fill="#4C2F1B"/>
<path d="M28.2316 92.1777C24.2412 92.1777 20.9938 88.9312 20.9938 84.94V62.9931H14.089C13.1989 62.9931 12.4465 62.4633 12.1726 61.6424C11.8439 60.8165 12.0853 59.9058 12.7632 59.3468L60.9965 17.6117C62.1144 16.6582 63.5318 16.131 64.986 16.131C65.9438 16.131 66.8674 16.3501 67.7319 16.7832C73.5881 19.7353 92.2953 31.6584 87.0981 61.1152C86.9398 62.1038 86.0599 62.8433 85.0499 62.8433L71.0965 62.8947L70.9553 63.1686C69.4668 66.0505 66.5378 67.8411 63.3118 67.8411C60.0867 67.8411 57.1577 66.0513 55.6684 63.1686L55.5254 62.893H51.4093V72.1473C51.4093 76.1933 48.1182 79.4843 44.0722 79.4843C40.0263 79.4843 36.7361 76.1933 36.7361 72.1481V62.8938H35.5181V84.8407C35.4719 88.8841 32.2031 92.1777 28.2316 92.1777ZM64.9347 20.3139C64.4639 20.3139 64.0282 20.4799 63.6739 20.7949L19.6697 58.8641H23.084C23.6635 58.8641 24.1685 59.0704 24.5048 59.4453C24.9165 59.8578 25.1237 60.3731 25.1237 60.9543V84.9913C25.1237 86.7049 26.518 88.0992 28.2307 88.0992C29.9734 88.0992 31.3377 86.734 31.3377 84.9913V60.9534C31.3377 59.8013 32.275 58.8641 33.427 58.8641H38.774C39.3526 58.8641 39.8577 59.0704 40.1949 59.4453C40.6066 59.8578 40.8137 60.3731 40.8137 60.9543V72.2979C40.8137 74.0663 42.2525 75.5051 44.0209 75.5051C45.7892 75.5051 47.2281 74.0663 47.2281 72.2979V60.9038C47.2281 59.7508 48.1653 58.8136 49.3174 58.8136H56.9634C57.9186 58.8136 58.7249 59.4444 58.9697 60.3825C59.4807 62.3717 61.2662 63.7617 63.3101 63.7617C65.3541 63.7617 67.1395 62.3717 67.6505 60.3817C67.8953 59.4453 68.7016 58.8145 69.656 58.8145L83.2918 58.7631L83.3526 58.3266C86.7566 33.9583 72.2409 23.771 65.842 20.5219C65.5321 20.3806 65.2334 20.3139 64.9347 20.3139Z" fill="#4C2F1B"/>
<path d="M85.0509 60.8036C90.0487 32.6692 72.6579 21.525 66.4113 18.4771C65.1617 17.8771 63.6621 18.0773 62.6127 18.9769L58.8149 22.2757C67.1106 28.4717 81.0528 39.9164 76.8049 60.855L85.0509 60.8036Z" fill="#FFB07B"/>
<path d="M76.8061 62.8938C76.1992 62.8938 75.5975 62.6071 75.1987 62.1269C74.8006 61.6502 74.6355 61.0065 74.7561 60.4031C78.4144 42.3173 68.0962 31.809 57.5211 23.9156C57.0213 23.569 56.7183 22.9818 56.6746 22.2928C56.6361 21.6714 56.8972 21.0782 57.3919 20.6665L61.1974 17.3609C62.2134 16.4836 63.4981 16 64.8145 16C65.6516 16 66.4862 16.2011 67.23 16.5812C73.2112 19.4982 92.2864 31.3203 86.9994 61.1648C86.841 62.1543 85.9611 62.8938 84.952 62.8938H76.8061ZM64.8436 20.1829C64.4987 20.1829 64.1597 20.3079 63.8867 20.5356L62.0704 22.149L62.5497 22.5248C67.3429 26.2891 81.9297 37.7449 79.2994 58.14L79.2258 58.7135H83.2461L83.3069 58.2752C86.7743 33.4421 71.9615 23.4577 65.4325 20.3173C65.2587 20.2309 65.0533 20.1829 64.8436 20.1829Z" fill="#4C2F1B"/>
<path d="M76.8057 60.8036C76.8057 60.8036 76.3555 66.3004 74.3569 69.499H81.7025C81.7025 69.499 84.3011 68.0996 85.0509 60.8036H76.8057Z" fill="#E2803D"/>
<path d="M74.3572 71.5892C73.5877 71.5892 72.9158 71.1861 72.558 70.5107C72.184 69.844 72.1985 69.0471 72.5897 68.4197C74.0285 66.0762 74.6208 61.9155 74.7149 60.6419C74.7928 59.5882 75.6898 58.7639 76.7563 58.7639H85.0015C85.6135 58.7639 86.1613 59.0053 86.5071 59.4273C86.9428 59.9075 87.1234 60.457 87.0455 61.0364C86.1981 69.0668 83.2058 71.0354 82.6143 71.3487C82.3747 71.5053 82.0349 71.5892 81.7028 71.5892H74.3572ZM78.6051 63.3029C78.4074 64.2924 78.1609 65.5241 77.7689 66.8011L77.5669 67.4593H80.9187L81.0711 67.2419C81.4152 66.7498 82.0657 65.6114 82.5493 63.5169L82.6931 62.8938H78.6873L78.6051 63.3029Z" fill="#4C2F1B"/>
<path d="M37.1272 50.3596C37.1272 52.264 38.6704 53.8073 40.5749 53.8073C42.4793 53.8073 44.0226 52.264 44.0226 50.3596C44.0226 48.4551 42.4793 46.9119 40.5749 46.9119C38.6704 46.9119 37.1272 48.4551 37.1272 50.3596Z" fill="#FF5C5C"/>
<path d="M40.5753 54.8575C38.1265 54.8575 36.0774 52.8589 36.0774 50.3604C36.0774 47.862 38.076 45.8625 40.5753 45.8625C43.0738 45.8625 45.0724 47.8611 45.0724 50.3604C45.0724 52.858 43.0738 54.8575 40.5753 54.8575ZM40.5753 47.9613C39.2264 47.9613 38.177 49.0611 38.177 50.3596C38.177 51.6589 39.276 52.7579 40.5753 52.7579C41.8746 52.7579 42.9736 51.658 42.9736 50.3596C42.9736 49.0603 41.9242 47.9613 40.5753 47.9613Z" fill="#4C2F1B"/>
<path d="M57.5662 53.8081H50.3199C49.9201 53.8081 49.5701 53.458 49.5701 53.0583V51.4089C49.5701 51.0092 49.9201 50.6591 50.3199 50.6591H57.5662C57.9659 50.6591 58.316 51.0092 58.316 51.4089V53.0583C58.3656 53.458 58.0155 53.8081 57.5662 53.8081Z" fill="#3DE25C"/>
<path d="M56.7668 54.8575H51.1699C49.7208 54.8575 48.5713 53.708 48.5713 52.2589C48.5713 50.8098 49.7208 49.6603 51.1699 49.6603H56.7668C58.2159 49.6603 59.3654 50.8098 59.3654 52.2589C59.3654 53.708 58.2159 54.8575 56.7668 54.8575ZM51.1699 51.7085C50.8703 51.7085 50.6204 51.9584 50.6204 52.258C50.6204 52.5585 50.8703 52.8084 51.1699 52.8084H56.7668C57.0664 52.8084 57.3163 52.5585 57.3163 52.258C57.3163 51.9584 57.0664 51.7085 56.7668 51.7085H51.1699Z" fill="#4C2F1B"/>
<path d="M62.5631 46.2614L58.7149 42.0639C58.5651 41.9141 58.5651 41.6642 58.7149 41.5144L60.4635 39.9155C60.6133 39.7657 60.8633 39.7657 61.0139 39.9155L64.8622 44.113C65.012 44.2628 65.012 44.5127 64.8622 44.6625L63.1135 46.2614C63.0125 46.412 62.7129 46.412 62.5631 46.2614Z" fill="#3DE25C"/>
<path d="M62.9134 47.2611H62.8141C62.3142 47.2611 61.864 47.0112 61.5148 46.6611L58.2169 43.1133C57.8668 42.7632 57.717 42.2642 57.717 41.7643C57.717 41.2653 57.967 40.8151 58.317 40.465L59.4161 39.4653C59.7661 39.1152 60.266 38.9655 60.7659 38.9655C61.2657 38.9655 61.7151 39.2154 62.0652 39.5655L65.3631 43.1133C65.7131 43.4634 65.8629 43.9632 65.8629 44.4631C65.8629 44.963 65.613 45.4123 65.2629 45.7624L64.1639 46.7621C63.813 47.0608 63.3628 47.2611 62.9134 47.2611ZM59.9151 41.814L62.9134 45.0622L63.7128 44.3124L60.7145 41.0642L59.9151 41.814Z" fill="#4C2F1B"/>
</svg>
