<svg width="22" height="21" viewBox="0 0 22 21" fill="none" xmlns="http://www.w3.org/2000/svg">
<path d="M21.1456 1.14496C20.7856 0.839675 20.2202 0.795995 19.6355 1.03072H19.6346C19.0197 1.27744 2.22928 8.47935 1.54576 8.77359C1.42144 8.81679 0.335681 9.22192 0.447521 10.1243C0.547361 10.9379 1.42 11.2749 1.52656 11.3138L5.7952 12.7754C6.0784 13.7181 7.1224 17.1962 7.35328 17.9392C7.49728 18.4024 7.732 19.011 8.14336 19.1363C8.50432 19.2755 8.86336 19.1483 9.09568 18.9659L11.7054 16.5453L15.9184 19.8309L16.0187 19.8909C16.3048 20.0176 16.5789 20.081 16.8405 20.081C17.0426 20.081 17.2365 20.043 17.4218 19.9672C18.053 19.708 18.3054 19.1066 18.3318 19.0384L21.4787 2.68144C21.6707 1.80784 21.4038 1.36336 21.1456 1.14496ZM9.55984 13.36L8.11984 17.2L6.67984 12.4L17.7198 4.24L9.55984 13.36Z" fill="white"/>
</svg>
