<svg width="281" height="266" viewBox="0 0 281 266" fill="none" xmlns="http://www.w3.org/2000/svg">
<path fill-rule="evenodd" clip-rule="evenodd" d="M277.955 5.98516C282.35 11.6629 281.31 19.828 275.632 24.2225C221.409 66.1913 145.096 161.703 100.275 246.762L90.1885 265.905L78.0235 248.011L88.7743 240.702C78.0235 248.011 78.0235 248.011 78.0235 248.011L78.022 248.009L78.0181 248.003L77.7195 247.564C77.5213 247.272 77.2293 246.841 76.8523 246.285C76.0982 245.173 75.0042 243.557 73.6415 241.54C70.9165 237.506 67.1156 231.864 62.8102 225.429C54.2152 212.581 43.551 196.485 35.426 183.708C28.7481 173.207 20.4396 159.687 13.8283 148.838C10.5166 143.404 7.61955 138.622 5.55009 135.198C4.51524 133.486 3.687 132.113 3.11698 131.167C2.83196 130.694 2.61148 130.327 2.46197 130.079L2.23391 129.7L2.23313 129.699C98.7952 71.6508 24.5171 116.304 24.5171 116.304L24.5177 116.305L24.7391 116.673C24.8862 116.917 25.1041 117.279 25.3864 117.748C25.9511 118.685 26.7734 120.048 27.8017 121.749C29.8586 125.153 32.7387 129.907 36.0302 135.308C42.6254 146.13 50.8273 159.475 57.3656 169.757C65.3208 182.266 75.8458 198.155 84.42 210.971C85.5248 212.622 86.5962 214.221 87.6245 215.754C134.427 133.424 205.934 45.2902 259.718 3.66176C265.396 -0.732764 273.561 0.307457 277.955 5.98516ZM24.5171 116.304C20.8183 110.15 12.8313 108.16 6.67764 111.859C0.52402 115.558 -1.46567 123.545 2.23313 129.699C98.7952 71.6508 24.5171 116.304 24.5171 116.304Z" fill="#B4D57C"/>
</svg>
