<svg width="21" height="21" viewBox="0 0 21 21" fill="none" xmlns="http://www.w3.org/2000/svg">
<path fill-rule="evenodd" clip-rule="evenodd" d="M2.55685 2.5549C-0.745512 5.85726 -0.745512 11.2114 2.55685 14.5138C5.61938 17.5763 10.4465 17.7987 13.7654 15.181L18.3688 19.7845C18.7603 20.1759 19.395 20.1759 19.7865 19.7845C20.1779 19.393 20.1779 18.7583 19.7865 18.3668L15.183 13.7634C17.8007 10.4445 17.5783 5.61741 14.5158 2.5549C11.2134 -0.747465 5.85921 -0.747465 2.55685 2.5549ZM3.97451 13.0961C1.45511 10.5767 1.45511 6.49197 3.97451 3.97256C6.49392 1.45316 10.5787 1.45316 13.0981 3.97256C15.6175 6.49197 15.6175 10.5767 13.0981 13.0961C10.5787 15.6155 6.49392 15.6155 3.97451 13.0961Z" fill="#989898"/>
</svg>
